<?xml version="1.0" standalone="no"?>
<!DOCTYPE svg PUBLIC "-//W3C//DTD SVG 20010904//EN"
 "http://www.w3.org/TR/2001/REC-SVG-20010904/DTD/svg10.dtd">
<svg version="1.0" xmlns="http://www.w3.org/2000/svg"
 width="16.000000pt" height="16.000000pt" viewBox="0 0 16.000000 16.000000"
 preserveAspectRatio="xMidYMid meet">
<metadata>
Created by potrace 1.11, written by Peter Selinger 2001-2013
</metadata>
<g transform="translate(0.000000,16.000000) scale(0.008333,-0.008333)"
fill="#000000" stroke="none">
<path d="M727 1669 c-24 -33 -21 -39 13 -32 17 3 30 1 30 -4 0 -5 7 -18 15
-29 14 -19 14 -18 15 3 0 13 -13 37 -28 54 l-29 32 -16 -24z"/>
<path d="M1190 1628 c-11 -18 -20 -44 -20 -58 1 -23 3 -21 21 13 19 36 41 47
54 27 8 -12 -32 -70 -48 -70 -7 0 -23 -25 -36 -56 -25 -58 -57 -104 -71 -104
-5 0 -6 23 -3 50 5 46 4 50 -15 50 -11 0 -24 5 -27 10 -3 6 -19 10 -35 10 -20
0 -31 6 -35 20 -8 24 -18 25 -35 5 -7 -8 -21 -15 -31 -15 -15 0 -19 -7 -19
-35 0 -25 -4 -35 -15 -35 -16 0 -75 84 -75 107 0 7 -8 13 -19 13 -10 0 -26 11
-35 25 -18 27 -42 33 -49 13 -6 -19 21 -55 51 -67 34 -15 76 -71 62 -85 -7 -7
-26 6 -58 37 -32 32 -56 47 -74 47 -30 0 -43 -23 -22 -40 18 -16 18 -49 -1
-56 -8 -3 -30 3 -49 14 -18 11 -39 16 -45 12 -19 -11 -3 -75 25 -101 13 -12
24 -28 24 -36 0 -7 6 -13 14 -13 7 0 19 -7 26 -15 10 -12 10 -15 -2 -15 -8 0
-19 5 -25 11 -15 15 -80 16 -95 1 -9 -9 -6 -18 15 -40 35 -36 34 -48 -4 -67
-28 -15 -33 -15 -55 0 -13 8 -24 12 -24 9 0 -10 103 -134 144 -173 20 -19 36
-39 36 -44 0 -5 -13 -26 -28 -46 -16 -20 -32 -44 -35 -53 -4 -10 -13 -18 -22
-18 -18 0 -19 5 -5 31 14 24 5 24 -30 -1 -40 -28 -81 -42 -107 -35 -34 8 -28
21 15 33 78 23 112 37 112 49 0 6 -16 29 -35 50 -66 71 -87 109 -91 164 -2 29
1 58 7 66 9 9 8 17 -1 28 -17 21 -27 19 -33 -6 -6 -22 -13 -22 -77 -3 -22 7
-24 6 -11 -9 7 -9 21 -17 31 -17 19 0 50 -30 50 -48 0 -15 -19 -14 -143 2 -61
8 -104 19 -115 29 -24 22 -32 21 -32 -3 0 -26 23 -35 135 -56 50 -8 104 -18
120 -21 34 -6 65 -30 65 -49 0 -9 -30 -14 -118 -16 -123 -3 -166 6 -180 40
-27 63 -74 113 -87 93 -6 -11 59 -97 79 -104 9 -4 16 -16 16 -28 0 -27 56 -83
168 -165 18 -13 9 -44 -13 -44 -9 0 -15 -9 -15 -23 0 -23 -2 -24 -77 -20 -73
4 -76 3 -53 -11 14 -8 41 -16 60 -16 44 0 84 -20 88 -44 5 -26 -17 -36 -63
-29 -36 6 -39 5 -26 -10 7 -10 25 -17 40 -17 31 0 51 -16 51 -42 0 -13 8 -18
30 -18 21 0 47 -13 81 -40 28 -22 59 -40 70 -40 11 0 27 -4 37 -10 9 -5 45
-19 78 -30 48 -17 74 -35 120 -82 70 -72 122 -109 201 -143 l59 -26 58 26 c79
35 164 94 211 146 44 50 72 69 130 87 22 7 49 17 60 22 11 5 31 11 45 14 14 3
44 21 68 41 23 20 50 35 59 35 35 -4 43 0 43 21 0 15 11 25 40 36 46 18 54 38
11 30 -29 -6 -51 7 -51 30 0 18 53 43 92 43 18 1 44 8 58 16 23 14 20 15 -52
10 -77 -4 -78 -4 -78 19 0 15 -7 26 -20 30 -27 8 -25 31 3 46 61 33 157 123
157 148 0 9 16 33 36 52 36 34 69 87 61 96 -8 7 -45 -19 -51 -37 -9 -24 -56
-84 -73 -94 -9 -5 -84 -8 -167 -7 l-151 2 -63 -70 c-41 -46 -68 -68 -77 -65
-18 7 -20 35 -3 52 9 9 9 17 -1 35 -11 20 -8 27 34 72 26 28 63 69 82 93 49
58 62 55 60 -15 -2 -64 -6 -62 78 -44 28 6 97 20 154 31 107 20 122 28 114 61
-5 18 -7 17 -35 -6 -18 -16 -42 -25 -63 -25 -18 0 -69 -7 -114 -15 -84 -16
-101 -14 -101 10 0 15 49 45 73 45 8 0 20 7 27 15 17 20 -5 20 -44 0 -35 -19
-62 -12 -70 18 -6 21 -8 21 -39 -15 -38 -43 -93 -78 -124 -78 -15 0 -28 10
-38 30 -8 16 -25 35 -37 41 -21 11 -21 12 -3 25 10 8 31 14 46 14 15 0 29 7
33 15 3 8 17 20 31 25 29 11 31 22 10 40 -12 10 -16 9 -21 -4 -9 -23 -37 -20
-62 7 -31 33 -15 54 26 33 39 -20 39 -20 45 4 4 15 -2 24 -24 35 -29 16 -38
38 -19 50 12 8 13 42 1 49 -11 7 -81 -21 -81 -33 0 -12 -47 -61 -60 -61 -24 0
-6 34 51 92 53 55 58 64 44 74 -9 7 -20 25 -24 41 -11 40 -37 41 -61 1z m-208
-139 c2 -6 2 -27 0 -46 -3 -24 -9 -33 -20 -31 -18 3 -31 43 -24 71 5 19 38 24
44 6z m-247 -49 c3 -5 -1 -10 -9 -10 -9 0 -16 5 -16 10 0 6 4 10 9 10 6 0 13
-4 16 -10z m315 -6 c0 -8 -5 -12 -10 -9 -6 4 -8 11 -5 16 9 14 15 11 15 -7z
m216 -21 c-10 -10 -19 5 -10 18 6 11 8 11 12 0 2 -7 1 -15 -2 -18z m-658 -11
c4 -24 -7 -29 -26 -10 -18 18 -15 40 6 36 9 -2 18 -13 20 -26z m187 -2 c7 -11
-43 -78 -59 -79 -14 -1 3 63 21 77 20 15 30 15 38 2z m-85 -18 c0 -29 -37 -58
-57 -46 -26 16 -25 28 5 46 36 22 52 22 52 0z m345 -33 l40 -41 -40 7 c-42 8
-65 27 -65 57 0 29 23 21 65 -23z m-110 -38 c0 -5 -16 -20 -35 -33 -23 -16
-36 -33 -38 -51 -3 -23 -9 -28 -43 -33 -44 -7 -46 -10 -22 -36 30 -33 13 -34
-86 -2 -21 7 5 32 37 36 22 2 28 10 34 42 9 43 4 56 -14 38 -7 -7 -16 -12 -20
-12 -14 0 -9 27 8 41 14 11 18 11 29 -4 13 -18 75 -24 75 -7 0 6 -11 21 -25
34 -27 26 -32 42 -12 49 15 5 112 -49 112 -62z m302 52 c3 -6 -14 -24 -36 -39
-39 -25 -42 -26 -66 -10 -31 20 -32 44 -2 56 30 12 99 8 104 -7z m-617 -133
c0 -5 -4 -10 -10 -10 -5 0 -10 5 -10 10 0 6 5 10 10 10 6 0 10 -4 10 -10z
m430 -9 c0 -20 -18 -31 -51 -31 -21 0 -25 20 -7 38 20 20 58 15 58 -7z m-350
-13 c0 -16 -31 -48 -47 -48 -21 0 -15 27 9 44 27 19 38 20 38 4z m542 -17 c9
-10 24 -23 34 -29 15 -9 16 -13 5 -26 -20 -24 -37 -20 -61 14 -32 46 -13 82
22 41z m-622 -30 c0 -10 -8 -29 -19 -42 -16 -20 -21 -21 -35 -10 -21 17 -20
30 2 52 23 24 52 24 52 0z m375 -11 c3 -5 2 -10 -4 -10 -5 0 -13 5 -16 10 -3
6 -2 10 4 10 5 0 13 -4 16 -10z m100 0 c-3 -5 -20 -10 -36 -10 -18 0 -28 4
-24 10 3 6 20 10 36 10 18 0 28 -4 24 -10z m-320 -99 c0 -58 2 -64 24 -73 14
-5 31 -6 39 -3 12 5 12 9 -3 25 -18 19 -17 20 14 31 21 7 33 20 38 37 8 35 17
40 61 33 28 -5 37 -12 42 -31 3 -14 18 -31 32 -39 23 -13 29 -13 52 2 19 13
26 26 26 48 0 20 4 29 13 26 8 -3 12 -28 11 -83 0 -79 -1 -79 -28 -82 -24 -3
-27 -1 -21 17 7 25 -7 28 -25 6 -11 -13 -10 -18 4 -28 13 -10 15 -18 8 -38
-14 -37 -38 -52 -68 -45 -15 4 -32 2 -40 -5 -8 -6 -21 -8 -31 -4 -10 4 -29 7
-43 6 -31 -1 -56 17 -69 52 -7 16 -21 29 -38 33 -39 10 -43 19 -43 100 0 74 4
87 30 82 12 -3 15 -18 15 -67z m-454 -31 c109 0 119 -2 119 -18 0 -19 -5 -20
-185 -48 -24 -4 -37 2 -63 26 -32 31 -35 57 -5 46 8 -3 68 -6 134 -6z m1407
-8 c1 -5 -12 -22 -29 -37 -35 -29 -29 -28 -159 -6 -100 17 -110 20 -110 35 0
8 5 16 10 18 25 8 285 -1 288 -10z m-482 -48 c-23 -16 -46 -19 -46 -5 0 6 10
17 22 25 30 21 52 2 24 -20z m-768 -17 c2 -10 -3 -17 -12 -17 -8 0 -42 -12
-75 -26 -58 -25 -62 -26 -86 -10 -39 25 -26 40 43 49 33 4 71 11 84 16 29 12
42 9 46 -12z m1000 8 c37 -8 80 -16 96 -17 38 -4 44 -22 13 -42 -22 -15 -28
-14 -88 9 -105 42 -110 45 -104 55 8 13 3 13 83 -5z m-82 -35 c6 -6 35 -18 65
-28 56 -18 70 -35 31 -40 -25 -4 -132 42 -132 56 0 21 20 28 36 12z m-641 -36
c22 -22 5 -40 -24 -25 -24 13 -28 41 -7 41 8 0 22 -7 31 -16z m613 -12 c3 -9
-2 -13 -14 -10 -9 1 -19 9 -22 16 -3 9 2 13 14 10 9 -1 19 -9 22 -16z m-960
-68 c18 -13 22 -25 22 -73 0 -76 -25 -102 -85 -92 l-40 6 -1 80 c0 44 1 83 3
88 7 13 78 7 101 -9z m114 -14 c-2 -14 -4 -42 -5 -64 l-2 -39 44 -1 43 -1 19
62 c31 98 64 94 99 -13 14 -42 27 -64 37 -64 13 0 15 11 10 69 -5 56 -3 70 9
75 30 12 72 6 97 -14 21 -17 25 -29 25 -71 1 -76 -17 -89 -122 -88 l-84 1 -6
30 c-7 36 -30 33 -34 -5 l-3 -27 -95 0 -95 0 7 60 c5 42 3 64 -6 75 -18 21 5
47 39 43 21 -2 25 -8 23 -28z m520 18 c10 -5 27 -3 43 4 22 10 29 8 54 -16
l28 -27 17 26 c12 18 24 25 39 23 21 -3 22 -7 18 -75 -3 -61 0 -73 12 -73 10
0 23 21 36 58 28 77 35 87 57 87 15 0 25 -17 44 -72 30 -85 35 -91 50 -63 12
22 10 62 -5 107 -5 16 -2 23 15 28 16 5 29 0 50 -20 l28 -27 4 23 c4 28 39 37
57 15 9 -11 10 -20 2 -35 -6 -11 -11 -45 -11 -75 0 -49 -3 -56 -19 -56 -11 0
-28 13 -38 30 -22 37 -35 38 -31 3 3 -28 3 -28 -62 -28 -60 0 -65 2 -70 24 -6
28 -29 40 -31 17 -1 -9 -2 -22 -3 -28 -1 -9 -22 -13 -71 -13 l-70 0 3 31 c3
29 1 31 -22 27 -18 -4 -26 -12 -28 -32 -2 -20 -8 -26 -28 -26 -24 0 -25 3 -28
65 -4 75 -11 88 -36 61 -15 -16 -22 -18 -37 -8 -10 6 -22 8 -26 3 -4 -4 0 -12
10 -17 21 -12 23 -39 2 -39 -8 0 -15 -7 -15 -15 0 -18 21 -20 38 -3 16 16 35
-3 30 -28 -3 -16 -13 -19 -62 -19 l-58 0 -2 82 c-2 76 -1 82 18 86 33 7 80 4
98 -5z m-138 -243 c10 -34 7 -39 -14 -20 -19 17 -21 17 -38 2 -32 -29 -112
-20 -112 12 0 28 9 31 86 28 63 -2 74 -5 78 -22z m143 11 c-9 -23 3 -26 24 -5
10 10 30 19 44 19 21 0 25 -5 25 -29 l0 -28 -85 1 c-47 0 -85 4 -85 8 0 3 -3
14 -7 23 -5 15 -3 16 14 6 17 -8 22 -7 27 4 3 8 15 15 27 15 14 0 19 -5 16
-14z m-129 -96 c6 0 12 -11 12 -25 0 -15 6 -25 14 -25 8 0 17 11 20 25 5 21
12 25 41 25 42 0 44 -7 8 -36 -26 -21 -27 -22 -10 -47 9 -15 17 -29 17 -32 0
-11 -23 -4 -47 15 -25 19 -25 19 -54 -2 -35 -26 -46 -19 -29 22 12 28 11 32
-14 51 -29 23 -25 44 8 35 11 -3 27 -6 34 -6z m-145 -6 c9 -10 -4 -34 -18 -34
-17 0 -28 17 -20 30 7 11 28 13 38 4z m372 -14 c-3 -5 -11 -10 -16 -10 -6 0
-7 5 -4 10 3 6 11 10 16 10 6 0 7 -4 4 -10z m-180 -130 c3 -5 2 -10 -4 -10 -5
0 -13 5 -16 10 -3 6 -2 10 4 10 5 0 13 -4 16 -10z"/>
<path d="M925 1018 c-48 -27 -34 -58 27 -58 48 0 62 24 29 52 -27 21 -29 21
-56 6z"/>
<path d="M370 760 c0 -5 5 -10 10 -10 6 0 10 5 10 10 0 6 -4 10 -10 10 -5 0
-10 -4 -10 -10z"/>
<path d="M370 696 c0 -9 7 -16 16 -16 17 0 14 22 -4 28 -7 2 -12 -3 -12 -12z"/>
<path d="M832 728 c2 -24 8 -43 13 -43 6 0 11 19 13 43 3 33 0 42 -13 42 -13
0 -16 -9 -13 -42z"/>
<path d="M30 1320 c0 -16 38 -88 51 -95 18 -12 23 4 9 32 -8 16 -14 33 -15 38
-2 28 -45 52 -45 25z"/>
<path d="M1837 1303 c-3 -16 -8 -38 -12 -50 -11 -35 10 -28 34 11 26 42 27 66
2 66 -13 0 -20 -9 -24 -27z"/>
<path d="M1745 1288 c-27 -11 -52 -22 -55 -25 -10 -10 56 10 90 28 45 24 28
22 -35 -3z"/>
</g>
</svg>
